# xmcd
#
# Track frame offsets: 
#        150
#        17803
#        33456
#        59387
#        74391
#        92394
#        110998
#        129769
#        146157
#        165572
#        185185
#        206063
#        231873
#        253996
#
# Disc length: 3738 seconds
#
# Revision: 0
# Processed by: cddbd v1.5.2PL0 Copyright (c) Steve Scherf et al.
# Submitted via: ExactAudioCopy v0.99pb4
#
DISCID=d20e980e
DTITLE=RBL Posse - Bootlegs and Bay Shit -The Resume Disc 2
DYEAR=2000
DGENRE=Gangsta
TTITLE0=Serve On
TTITLE1=Never Ask to Be Feat T-Lowe
TTITLE2=Gotta Git Mine Feat MC Eiht, Tela and T.Q.
TTITLE3=Reality Feat 4-Tay and Suga T
TTITLE4=Funk Feat Cellski
TTITLE5=Dollar Out of 15 Cents Feat Master P
TTITLE6=Fuck This Life
TTITLE7=You Can't Hang
TTITLE8=Would You Know
TTITLE9=No Time 4 That Feat Doorroe Baby and Kinsmoke
TTITLE10=Check Yo Self Feat Guce
TTITLE11=Got My Nine (9mm Remix)
TTITLE12=As We Blaze (Unreleased)
TTITLE13=G's by the 1, 2, 3's Feat Totally Insane
EXTD=
EXTT0=
EXTT1=
EXTT2=
EXTT3=
EXTT4=
EXTT5=
EXTT6=
EXTT7=
EXTT8=
EXTT9=
EXTT10=
EXTT11=
EXTT12=
EXTT13=
PLAYORDER=
